<svg xmlns="http://www.w3.org/2000/svg" width="61" height="60" viewBox="0 0 61 60"><path fill="#42BAF1" fill-rule="evenodd" d="M6.96 33c0-.55.44-1 1-1h3v-1c0-1.65 1.34-3 3-3 1.65 0 3 1.35 3 3v4c0 1.65-1.35 3-3 3-.8 0-1.57-.32-2.14-.9-.4-.4-.38-1.02 0-1.4.4-.4 1.04-.4 1.43 0 .2.2.44.3.7.3.56 0 1-.45 1-1v-4c0-.55-.44-1-1-1-.54 0-1 .45-1 1v2c0 .55-.44 1-1 1h-4c-.55 0-1-.45-1-1zm33 15c-.27 0-.52-.1-.7-.3-.4-.4-1.03-.4-1.43 0-.4.38-.4 1 0 1.4.56.58 1.32.9 2.13.9 1.65 0 3-1.35 3-3v-4c0-1.65-1.35-3-3-3-1.66 0-3 1.35-3 3v1h-9c-.56 0-1 .45-1 1s.44 1 1 1h10c.55 0 1-.45 1-1v-2c0-.55.45-1 1-1s1 .45 1 1v4c0 .55-.45 1-1 1zm-32-2h12c.55 0 1-.45 1-1v-2c0-.55.45-1 1-1s1 .45 1 1v4c0 .55-.45 1-1 1-.27 0-.52-.1-.7-.3-.4-.4-1.03-.4-1.43 0-.4.38-.4 1 0 1.4.56.58 1.32.9 2.13.9 1.65 0 3-1.35 3-3v-4c0-1.65-1.35-3-3-3-1.66 0-3 1.35-3 3v1h-11c-.56 0-1 .45-1 1s.44 1 1 1zm46-14h-2c-.56 0-1 .45-1 1s.44 1 1 1h2c.55 0 1-.45 1-1s-.45-1-1-1zm-46-10h22c.55 0 1-.45 1-1v-2c0-.55.45-1 1-1s1 .45 1 1v4c0 .55-.45 1-1 1-.27 0-.52-.1-.7-.3-.4-.4-1.03-.4-1.43 0-.4.38-.4 1 0 1.4.56.58 1.32.9 2.13.9 1.65 0 3-1.35 3-3v-4c0-1.65-1.35-3-3-3-1.66 0-3 1.35-3 3v1h-21c-.56 0-1 .45-1 1s.44 1 1 1zm16 14c-.27 0-.52-.1-.7-.3-.4-.4-1.03-.4-1.43 0-.4.38-.4 1 0 1.4.56.58 1.32.9 2.13.9 1.65 0 3-1.35 3-3v-4c0-1.65-1.35-3-3-3-1.66 0-3 1.35-3 3v1h-1c-.56 0-1 .45-1 1s.44 1 1 1h2c.55 0 1-.45 1-1v-2c0-.55.45-1 1-1s1 .45 1 1v4c0 .55-.45 1-1 1zm22 0c-.27 0-.52-.1-.7-.3-.4-.4-1.03-.4-1.43 0-.4.38-.4 1 0 1.4.56.58 1.32.9 2.13.9 1.65 0 3-1.35 3-3v-4c0-1.65-1.35-3-3-3-1.66 0-3 1.35-3 3v1h-13c-.56 0-1 .45-1 1s.44 1 1 1h14c.55 0 1-.45 1-1v-2c0-.55.45-1 1-1s1 .45 1 1v4c0 .55-.45 1-1 1zm8-16h-16c-.56 0-1 .45-1 1s.44 1 1 1h16c.55 0 1-.45 1-1s-.45-1-1-1zm-46-10h16c.55 0 1-.45 1-1V7c0-.55.45-1 1-1s1 .45 1 1v4c0 .55-.45 1-1 1-.27 0-.52-.1-.7-.3-.4-.4-1.03-.4-1.43 0-.4.38-.4 1 0 1.4.56.58 1.32.9 2.13.9 1.65 0 3-1.35 3-3V7c0-1.65-1.35-3-3-3-1.66 0-3 1.35-3 3v1h-15c-.56 0-1 .45-1 1s.44 1 1 1zm24 0h10c.55 0 1-.45 1-1V7c0-.55.45-1 1-1s1 .45 1 1v4c0 .55-.45 1-1 1-.27 0-.52-.1-.7-.3-.4-.4-1.03-.4-1.43 0-.4.38-.4 1 0 1.4.56.58 1.32.9 2.13.9 1.65 0 3-1.35 3-3V7c0-1.65-1.35-3-3-3-1.66 0-3 1.35-3 3v1h-9c-.56 0-1 .45-1 1s.44 1 1 1zm18 0h4c.55 0 1-.45 1-1s-.45-1-1-1h-4c-.56 0-1 .45-1 1s.44 1 1 1zm8 44h-50c-.56 0-1 .45-1 1s.44 1 1 1h50c.8 0 .98.55 1 1v1h-56v-1c0-.45.2-1 1-1 .55 0 1-.45 1-1V1c0-.55-.45-1-1-1-.56 0-1 .45-1 1v53.14C1.5 54.6.96 56 .96 57v2c0 .55.44 1 1 1h58c.55 0 1-.45 1-1v-2c0-1.2-.8-3-3-3zm0-2c.55 0 1-.45 1-1V1c0-.55-.45-1-1-1-.56 0-1 .45-1 1v50c0 .55.44 1 1 1zm-12-6h8c.55 0 1-.45 1-1s-.45-1-1-1h-8c-.56 0-1 .45-1 1s.44 1 1 1z"/></svg>