<svg xmlns="http://www.w3.org/2000/svg" width="50" height="18" viewBox="0 0 50 18"><g fill="none" fill-rule="evenodd"><path fill="#F27521" d="M50 3.33c0 1-.8 1.8-1.82 1.8-1 0-1.82-.8-1.82-1.8s.82-1.82 1.82-1.82S50 2.4 50 3.4m-3.46 2.1v12.3h3.34V5.48s-.84.4-1.67.4c-.8 0-1.6-.47-1.6-.47M46 .87V3.5s-2.1-.5-2.1 1.82H46V7.7h-2.1v10.05h-3.33V7.77h-1.95V5.3h2.02S40.1.86 44.3.86h1.67z"/><path fill="#24408F" d="M35.07 5.2l-1.78 7.83-2-7.73h-3l-1.7 7.8-2-7.66h-3.2l3.3 12.33h3.22l1.9-7.06 1.86 7.1h3.17L38.4 5.2"/><path fill="#24408F" d="M17.06 5.3c-6.02 0-5.86 4.68-5.86 7 0 2.35 1.1 5.45 5.62 5.45 4.5 0 5.5-3.23 5.5-3.7H19s-.43 1.35-1.8 1.35c-1.4 0-2.84-.86-2.84-2.94h8.06s.66-7.15-5.37-7.15zm-2.7 5.1s.2-2.58 2.46-2.58c2.24 0 2.44 2.57 2.44 2.57h-4.9zM0 5.6v12.15h3.4V9.73s.17-1.7 2.18-1.7c2.02 0 2.03 1.72 2.03 1.72v8h3.3V9.28s.2-3.98-3.8-3.98c-2.6 0-3.6 1.3-3.9 1.9 0-.8-.03-1.54-.03-1.54H0z"/></g></svg>