<svg xmlns="http://www.w3.org/2000/svg" width="60" height="60" viewBox="0 0 60 60"><path fill="#4A4A4A" fill-rule="evenodd" d="M34 12h-4c0-1.1.9-2 2-2s2 .9 2 2zm-4 2h4v2h-4v-2zm-2-2v5c0 .55.45 1 1 1h6c.55 0 1-.45 1-1v-5c0-2.2-1.8-4-4-4s-4 1.8-4 4zM5 52c-1.65 0-3-1.35-3-3 0-4.98 1.34-11 3-11s3 6.02 3 11c0 1.65-1.35 3-3 3zm0-16C.06 36 0 48.87 0 49c0 2.42 1.72 4.43 4 4.9V59c0 .55.45 1 1 1s1-.45 1-1v-5.1c2.28-.47 4-2.48 4-4.9 0-.13-.06-13-5-13zm52 22h-8c-.55 0-1-.45-1-1s.45-1 1-1c.2 0 .37.06.54.16.27.18.62.2.92.1.3-.13.52-.4.6-.7.2-.92 1-1.56 1.94-1.56.93 0 1.73.64 1.94 1.55.08.32.3.58.6.7s.65.1.92-.1c.65-.4 1.54.1 1.54.85 0 .55-.45 1-1 1zm0-4c-.17 0-.34.02-.5.05C55.8 52.8 54.47 52 53 52c-.34 0-.68.05-1 .13V23c0-.55-.45-1-1-1H13c-.55 0-1 .45-1 1v14c0 .55.45 1 1 1s1-.45 1-1V24h36v29.37c-.18.2-.35.43-.5.68-.16-.03-.33-.05-.5-.05-1.65 0-3 1.35-3 3s1.35 3 3 3h8c1.65 0 3-1.35 3-3s-1.35-3-3-3zm-13-2h-6v-6h6v6zm-14-6h6v6h-6v-6zm16-1c0-.55-.45-1-1-1H29c-.55 0-1 .45-1 1v8c0 .55.45 1 1 1h16c.55 0 1-.45 1-1v-8zM24 30h-4v-2h4v2zm-4 2h4v2h-4v-2zm5 4c.55 0 1-.45 1-1v-8c0-.55-.45-1-1-1h-6c-.55 0-1 .45-1 1v8c0 .55.45 1 1 1h6zm9-6h-4v-2h4v2zm-4 2h4v2h-4v-2zm5 4c.55 0 1-.45 1-1v-8c0-.55-.45-1-1-1h-6c-.55 0-1 .45-1 1v8c0 .55.45 1 1 1h6zm9-6h-4v-2h4v2zm-4 2h4v2h-4v-2zm5 4c.55 0 1-.45 1-1v-8c0-.55-.45-1-1-1h-6c-.55 0-1 .45-1 1v8c0 .55.45 1 1 1h6zM14 20h-3c-.55 0-1-.45-1-1V3c0-.55.45-1 1-1h14c.55 0 1 .45 1 1s-.45 1-1 1H12v14h1.6L31.3.3c.38-.4 1.02-.4 1.4 0L50.4 18H52V4h-5c-.55 0-1-.45-1-1V2h-2v1c0 .55-.45 1-1 1h-4c-.55 0-1-.45-1-1s.45-1 1-1h3V1c0-.55.45-1 1-1h4c.55 0 1 .45 1 1v1h5c.55 0 1 .45 1 1v16c0 .55-.45 1-1 1h-3c-.27 0-.52-.1-.7-.3L32 2.4 14.7 19.7c-.18.2-.43.3-.7.3zm33 22H14v17c0 .55-.45 1-1 1s-1-.45-1-1V41c0-.55.45-1 1-1h34c.55 0 1 .45 1 1s-.45 1-1 1zm-27 4h4v4h-1c-.55 0-1 .45-1 1s.45 1 1 1h1v4h-4V46zm23 12H28v-1c0-.55-.45-1-1-1h-1V45c0-.55-.45-1-1-1h-6c-.55 0-1 .45-1 1v11h-1c-.55 0-1 .45-1 1s.45 1 1 1h9v1c0 .55.45 1 1 1h16c.55 0 1-.45 1-1s-.45-1-1-1z"/></svg>