<svg xmlns="http://www.w3.org/2000/svg" width="60" height="60" viewBox="0 0 60 60"><path fill="#4A4A4A" fill-rule="evenodd" d="M30 22c1.1 0 2-.9 2-2s-.9-2-2-2-2 .9-2 2 .9 2 2 2zm0 2c-2.2 0-4-1.8-4-4s1.8-4 4-4 4 1.8 4 4-1.8 4-4 4zM18 36h-6v4h6v-4zm2-1v8c0 .55-.45 1-1 1s-1-.45-1-1v-1h-6v1c0 .55-.45 1-1 1s-1-.45-1-1v-8c0-.55.45-1 1-1h8c.55 0 1 .45 1 1zm4 0v8c0 .55.45 1 1 1s1-.45 1-1v-7h7c.55 0 1-.45 1-1s-.45-1-1-1h-8c-.55 0-1 .45-1 1zm-2 12c0 .55.45 1 1 1h6c.55 0 1-.45 1-1s-.45-1-1-1h-6c-.55 0-1 .45-1 1zm1 5h6.5c.55 0 1-.45 1-1s-.45-1-1-1H23c-.55 0-1 .45-1 1s.45 1 1 1zm0 4h8.23c.56 0 1-.45 1-1s-.44-1-1-1H23c-.55 0-1 .45-1 1s.45 1 1 1zm12 2H23c-.55 0-1 .45-1 1s.45 1 1 1h12c.55 0 1-.45 1-1s-.45-1-1-1zM15 46H1c-.55 0-1 .45-1 1s.45 1 1 1h14c.55 0 1-.45 1-1s-.45-1-1-1zm0 4H1c-.55 0-1 .45-1 1s.45 1 1 1h14c.55 0 1-.45 1-1s-.45-1-1-1zm0 4H1c-.55 0-1 .45-1 1s.45 1 1 1h14c.55 0 1-.45 1-1s-.45-1-1-1zm0 4H1c-.55 0-1 .45-1 1s.45 1 1 1h14c.55 0 1-.45 1-1s-.45-1-1-1zm4-12c-.55 0-1 .45-1 1v12c0 .55.45 1 1 1s1-.45 1-1V47c0-.55-.45-1-1-1zm27-5c1.1 0 2 .9 2 2 0 .55.45 1 1 1s1-.45 1-1c0-1.86-1.28-3.4-3-3.86V39c0-.55-.45-1-1-1s-1 .45-1 1v.14c-1.72.45-3 2-3 3.86 0 2.2 1.8 4 4 4 1.1 0 2 .9 2 2s-.9 2-2 2-2-.9-2-2c0-.55-.45-1-1-1s-1 .45-1 1c0 1.86 1.28 3.4 3 3.86V53c0 .55.45 1 1 1s1-.45 1-1v-.14c1.72-.45 3-2 3-3.86 0-2.2-1.8-4-4-4-1.1 0-2-.9-2-2s.9-2 2-2zm12 5c0-6.62-5.38-12-12-12s-12 5.38-12 12 5.38 12 12 12 12-5.38 12-12zm2 0c0 7.72-6.28 14-14 14s-14-6.28-14-14 6.28-14 14-14 14 6.28 14 14zM6 43v-8c0-.55-.45-1-1-1s-1 .45-1 1v8c0 .55.45 1 1 1s1-.45 1-1zM60 9v25c0 .4-.24.77-.62.92-.12.06-.25.08-.38.08-.26 0-.52-.1-.7-.3L30 6.4 1.7 34.7c-.18.2-.44.3-.7.3-.13 0-.25-.02-.38-.08C.25 34.77 0 34.4 0 34V9c0-.26.1-.52.3-.7.18-.2.44-.3.7-.3h11V6h-1c-.55 0-1-.45-1-1V1c0-.55.45-1 1-1h8c.55 0 1 .45 1 1v4c0 .55-.45 1-1 1h-1v2h2c.55 0 1 .45 1 1s-.45 1-1 1h-3c-.55 0-1-.45-1-1V5c0-.55.45-1 1-1h1V2h-6v2h1c.55 0 1 .45 1 1v4c0 .55-.45 1-1 1H2v21.58l27.3-27.3c.18-.18.44-.28.7-.28.25 0 .5.1.7.3L58 31.6V10H40c-.55 0-1-.45-1-1s.45-1 1-1h19c.55 0 1 .45 1 1z"/></svg>