<svg xmlns="http://www.w3.org/2000/svg" width="60" height="60" viewBox="0 0 60 60"><path fill="#4A4A4A" fill-rule="evenodd" d="M18.3 56.47c-.52-.14-1.07.17-1.2.7l-.23.83L13 56.96l.5-1.83c.14-.53-.18-1.08-.7-1.22-.55-.1-1.1.2-1.24.8l-.5 1.87c-.13.5-.06 1.05.2 1.5.28.48.7.8 1.22.95l3.87 1c.17.05.35.07.52.07.35 0 .7-.1 1-.27.46-.27.8-.7.93-1.2l.22-.85c.14-.54-.17-1.1-.7-1.23zm30.17-1.8c-.15-.53-.7-.84-1.23-.7s-.85.7-.7 1.22l.46 1.7-3.8 1.1-.23-.9c-.13-.58-.68-.9-1.22-.7-.52.1-.84.7-.7 1.2l.24.9c.1.5.4.9.9 1.2.3.2.62.3 1 .3.2 0 .32-.08.5-.1l3.84-1.06c.52-.16.95-.5 1.22-.96.25-.46.32-1 .2-1.5l-.5-1.78zM23 24c-.55 0-1 .45-1 1s.45 1 1 1h16c.56 0 1-.45 1-1s-.44-1-1-1H23zm32 14.23c-.55-.08-1.07.3-1.15.84C52.45 48.15 42.2 55 30 55c-10.4 0-19.55-4.98-22.8-12.4-.16-.36-.52-.6-.92-.6H3.5c-.2 0-.4-.03-.6-.45 0 0-.9-1.82-.9-4.55 0-2.7.9-4.54.9-4.58.17-.35.35-.42.6-.42h2.78c.4 0 .76-.24.92-.6 2.1-4.82 6.88-8.78 13.1-10.85.5-.18.8-.74.62-1.26-.17-.6-.74-.9-1.26-.7C13.16 20.8 8.1 24.9 5.64 30H3.5c-1.08 0-1.94.55-2.4 1.54C1.07 31.64 0 33.8 0 37s1.06 5.36 1.1 5.44c.5 1 1.35 1.56 2.4 1.56h2.14C9.42 51.8 19.1 57 30 57c13.2 0 24.3-7.58 25.83-17.63.08-.54-.3-1.05-.84-1.14zM31 16c-1.1 0-2-.9-2-2 0-.55-.44-1-1-1-.55 0-1 .45-1 1 0 1.86 1.28 3.4 3 3.86V18c0 .55.45 1 1 1 .56 0 1-.45 1-1v-.14c1.73-.45 3-2 3-3.86 0-2.2-1.8-4-4-4-1.1 0-2-.9-2-2s.9-2 2-2 2 .9 2 2c0 .55.45 1 1 1 .56 0 1-.45 1-1 0-1.86-1.27-3.4-3-3.86V4c0-.55-.44-1-1-1-.55 0-1 .45-1 1v.14c-1.72.45-3 2-3 3.86 0 2.2 1.8 4 4 4 1.1 0 2 .9 2 2s-.9 2-2 2zm-9-5c0 4.96 4.04 9 9 9 4.97 0 9-4.04 9-9s-4.03-9-9-9c-4.96 0-9 4.04-9 9zm-2 0c0-6.06 4.94-11 11-11 6.07 0 11 4.94 11 11 0 6.07-4.93 11-11 11-6.06 0-11-4.93-11-11zm38.7 18.27c-.42-.38-1.05-.35-1.42.05-.38.4-.36 1.04.05 1.4 0 .02.74.74.66 1.57-.1.7-.9 1.4-1.6 1.8l-.7.3c-1.03-6.57-6.1-12.2-13.87-15.3-.5-.2-1.1.04-1.3.55-.2.5.05 1.1.56 1.3 7.1 2.8 11.74 7.9 12.63 13.76-1.3-.06-2.23-.65-2.3-.7-.46-.3-1.08-.16-1.38.3-.3.46-.18 1.08.3 1.4.07.05 1.6 1 3.63 1 .3 0 .56 0 .84-.04h.1c.14 0 .25-.04.36-.1.7-.13 1.43-.4 2.17-.87 1.5-.96 2.32-2.1 2.44-3.38.16-1.8-1.15-3.07-1.3-3.2zM16 28c1.1 0 2 .9 2 2s-.9 2-2 2-2-.9-2-2 .9-2 2-2z"/></svg>