<svg xmlns="http://www.w3.org/2000/svg" width="18" height="18" viewBox="0 0 18 18" xmlns:xlink="http://www.w3.org/1999/xlink"><defs><circle id="b" cx="7" cy="7" r="7"/><filter id="a" width="200%" height="200%" x="-50%" y="-50%" filterUnits="objectBoundingBox"><feOffset dy="1" in="SourceAlpha" result="shadowOffsetOuter1"/><feGaussianBlur stdDeviation="1" in="shadowOffsetOuter1" result="shadowBlurOuter1"/><feColorMatrix values="0 0 0 0 0 0 0 0 0 0 0 0 0 0 0 0 0 0 0.164232337 0" in="shadowBlurOuter1"/></filter></defs><g fill="none" fill-rule="evenodd"><g transform="translate(2 1)"><use fill="#000" filter="url(#a)" xlink:href="#b"/><use fill="#42BAF1" xlink:href="#b"/></g><path fill="#FFF" d="M6.02 4.97c.43-.5.9-.87 1.43-1.14.53-.27 1.1-.4 1.7-.4.4 0 .77.04 1.12.15.34.1.65.26.9.46.26.2.46.47.6.77.16.4.23.7.23 1.1 0 .3-.05.5-.14.7-.1.2-.22.4-.36.5-.14.2-.3.3-.45.5l-.45.4c-.2.1-.3.2-.4.3-.1.1-.2.28-.2.4v.66H7.8v-1c0-.18.04-.35.13-.5.1-.17.2-.32.34-.46.14-.16.3-.3.45-.4l.46-.38c.14-.1.26-.23.35-.33.1-.14.16-.25.16-.36 0-.12-.1-.2-.1-.28l-.2-.17-.3-.07c-.1-.1-.28-.1-.38-.1-.13 0-.26.05-.4.1l-.4.2c-.15.1-.28.2-.4.35l-.35.34L6 4.97zm1.53 5.8c0-.15.03-.3.1-.45.05-.15.14-.3.26-.4.2-.13.3-.23.5-.3.2-.08.4-.12.6-.12.2 0 .4.04.6.1.2.07.38.17.5.28.14.12.2.25.3.4.07.17.1.33.1.5 0 .33-.12.62-.4.87-.24.24-.6.36-1.02.36-.2 0-.4 0-.54-.1-.17 0-.32-.1-.44-.2s-.2-.2-.3-.4c-.06-.1-.1-.3-.1-.4z"/></g></svg>