<svg xmlns="http://www.w3.org/2000/svg" width="14" height="14" viewBox="0 0 14 14"><g fill="none" fill-rule="evenodd"><circle cx="7" cy="7" r="7" fill="#9AEA41"/><path fill="#FFF" d="M6.23 8.1c-.24-.5-.52-1-.84-1.52l-.23-.33-2 1.28.25.34c.22.3.4.6.58.87.2.28.35.56.5.84.15.28.3.57.42.86l.4.94.1.3 2.47-.3.05-.25c.25-.87.52-1.67.8-2.38.3-.72.63-1.37.96-1.94.34-.56.68-1.07 1.04-1.52.36-.45.72-.84 1.08-1.18l.33-.3-1.87-1.63-.28.27c-.4.42-.78.9-1.15 1.4-.36.53-.7 1.1-1.03 1.7-.33.62-.63 1.26-.9 1.95-.16.36-.3.75-.45 1.14-.1-.18-.18-.37-.27-.56z"/></g></svg>