<svg xmlns="http://www.w3.org/2000/svg" width="14" height="14" viewBox="0 0 14 14"><g fill="none" fill-rule="evenodd"><circle cx="7" cy="7" r="7" fill="#EA7641"/><path fill="#FFF" d="M5.55 10.1c0-.14.03-.3.1-.45.05-.15.14-.28.26-.4.14-.12.28-.22.45-.3.17-.07.36-.1.58-.1.2 0 .4.02.58.1.18.06.33.15.46.27.13.1.22.25.3.4.06.16.1.32.1.5 0 .33-.13.62-.4.86-.25.24-.6.37-1.03.37-.2 0-.38-.04-.54-.1-.18-.08-.33-.18-.45-.3-.13-.1-.22-.23-.3-.38-.06-.15-.1-.3-.1-.46zm2.93-7.87H5.53l.32 5.95h2.3l.33-5.95z"/></g></svg>